<mxfile host="app.diagrams.net" modified="2022-07-01T12:22:30.189Z" agent="5.0 (Windows NT 10.0; Win64; x64) AppleWebKit/537.36 (KHTML, like Gecko) Chrome/100.0.4896.160 YaBrowser/22.5.4.904 Yowser/2.5 Safari/537.36" etag="FJcOw4ChBolsB-X2zMnF" version="20.0.4" type="github">
  <diagram id="C5RBs43oDa-KdzZeNtuy" name="Page-1">
    <mxGraphModel dx="1422" dy="789" grid="1" gridSize="10" guides="1" tooltips="1" connect="1" arrows="1" fold="1" page="1" pageScale="1" pageWidth="827" pageHeight="1169" math="0" shadow="0">
      <root>
        <mxCell id="WIyWlLk6GJQsqaUBKTNV-0" />
        <mxCell id="WIyWlLk6GJQsqaUBKTNV-1" parent="WIyWlLk6GJQsqaUBKTNV-0" />
        <mxCell id="vYKdZq86WIYc_xUheGj3-0" value="&lt;font style=&quot;font-size: 14px;&quot;&gt;Свойства:&lt;br&gt;x, y, dx, dy, R, color&lt;br&gt;&lt;/font&gt;" style="whiteSpace=wrap;html=1;aspect=fixed;" vertex="1" parent="WIyWlLk6GJQsqaUBKTNV-1">
          <mxGeometry x="140" y="90" width="130" height="130" as="geometry" />
        </mxCell>
        <mxCell id="vYKdZq86WIYc_xUheGj3-1" value="Методы:&lt;br&gt;__init__()&lt;br&gt;move()&lt;br&gt;show()&lt;br&gt;check_inside(x,y)&lt;br&gt;check_collision(ball)" style="whiteSpace=wrap;html=1;aspect=fixed;" vertex="1" parent="WIyWlLk6GJQsqaUBKTNV-1">
          <mxGeometry x="140" y="230" width="130" height="130" as="geometry" />
        </mxCell>
        <mxCell id="vYKdZq86WIYc_xUheGj3-2" value="&lt;font style=&quot;font-size: 20px;&quot;&gt;Ball&lt;/font&gt;" style="rounded=0;whiteSpace=wrap;html=1;fontSize=14;" vertex="1" parent="WIyWlLk6GJQsqaUBKTNV-1">
          <mxGeometry x="140" width="130" height="70" as="geometry" />
        </mxCell>
      </root>
    </mxGraphModel>
  </diagram>
</mxfile>
